<svg width="830" height="475" viewBox="0 0 830 475" fill="none" xmlns="http://www.w3.org/2000/svg"><path d="M450.085-97h-76.358c-23.403 0-44.892 12.952-55.881 33.675L0 537h112.024c26.178 0 50.181-14.754 61.994-38.142l47.33-93.478.45-.901.788-1.539L476-97h-25.915Z" fill="url(#a)" fill-opacity=".5"/><path d="M716.044 321.121 524.329-49 474.028 52.352c-18.642 28.828-20.255 64.677-4.239 93.468l74.308 139.415H383.141L325 402.953h280.576L673.432 537H830L715.744 321.234l.3-.075v-.038Z" fill="url(#b)" fill-opacity=".5"/><defs><linearGradient id="a" x1="0" y1="220" x2="476" y2="220" gradientUnits="userSpaceOnUse"><stop stop-color="#2B1FC9"/></linearGradient><linearGradient id="b" x1="325" y1="244" x2="830" y2="244" gradientUnits="userSpaceOnUse"><stop stop-color="#2B1FC9"/></linearGradient></defs></svg>